<svg id="Ñëîé_1" data-name="Ñëîé 1" xmlns="http://www.w3.org/2000/svg" viewBox="0 0 600 400"><defs><style>.cls-1{fill:#d4ecff;}.cls-2{fill:#396caa;}.cls-3{fill:#5793ce;}.cls-4{fill:#c4d9e8;}.cls-5{fill:#173d7a;}.cls-6{fill:#fff;}.cls-7{fill:#d3d0cf;}.cls-8{fill:#f2f2f2;}.cls-9{fill:#ffc2b0;}.cls-10{fill:#ea9c92;}.cls-11{fill:#753306;}.cls-12{fill:#274f89;}</style></defs><path class="cls-1" d="M0,0V86.57a29.08,29.08,0,0,0,27.91,4.12l47.85-18A29.09,29.09,0,0,0,92.69,55.71l18-47.86A28.85,28.85,0,0,0,112.5,0Z"/><path class="cls-1" d="M600,301.4l-66.15,41A15.7,15.7,0,0,0,528.74,364L551,400h49Z"/><path class="cls-2" d="M84.15,329.55A18.47,18.47,0,0,0,71,316.62L32,306.57a18.47,18.47,0,0,0-17.8,5L0,326v74H76.85l13.49-13.76A18.48,18.48,0,0,0,95,368.35Z"/><rect class="cls-3" x="561.71" y="199.41" width="1.08" height="3.15" transform="translate(617.34 -393.57) rotate(75.62)"/><rect class="cls-3" x="560.16" y="200.92" width="1.08" height="3.15" transform="translate(617.68 -390.92) rotate(75.63)"/><rect class="cls-3" x="558.6" y="202.44" width="1.08" height="3.15" transform="translate(617.97 -388.27) rotate(75.63)"/><rect class="cls-3" x="557.04" y="203.96" width="1.08" height="3.15" transform="translate(618.25 -385.62) rotate(75.62)"/><path class="cls-4" d="M496.42,106.41l-28.63,16.8c-7.26-2.23-16.5-1.54-22.61,2-7.42,4.36-7.37,11.33.11,15.59a22.76,22.76,0,0,0,5.63,2.2,30,30,0,0,0,4.48.78c6,.58,12.31-.49,16.89-3.17,5.55-3.26,6.92-8,4.14-11.93l3.95-2.32-.11-2.51,4.15,0-.1-2.35,4.16,0-.11-2.35,4.16,0-.11-2.35,4.16,0-.1-2.35,4.43,0,1.36-.79,1.49-6.17Zm-40.29,32.14a7.75,7.75,0,0,1-7,0c-1.95-1.11-2-2.92,0-4.06a7.77,7.77,0,0,1,7,0C458.05,135.6,458.07,137.42,456.13,138.55Z"/><path class="cls-4" d="M512.08,212.66l-38.61-22.2c-2.6-1.5-2.27-4.12.73-5.85L511.67,163c3-1.73,7.54-1.92,10.14-.42l38.61,22.2c2.6,1.5,2.28,4.12-.73,5.85l-37.47,21.64C519.22,214,514.68,214.16,512.08,212.66Z"/><path class="cls-3" d="M557.34,162.33l-6.67-3.85,24.61-14.21a1.29,1.29,0,0,0,0-2.44l-25.14-14.51a4.68,4.68,0,0,0-4.22,0l-24.61,14.21-6.67-3.86,24.61-14.21c4.84-2.79,12.72-2.79,17.56,0L582,138c4.85,2.8,4.85,7.35,0,10.14Z"/><path class="cls-1" d="M568.11,164c0-3.57-2.16-7.72-4.84-9.26L518.68,129a3.1,3.1,0,0,0-3.14-.26h0L462.3,159.69l51.48,38.8L566.23,168a2.2,2.2,0,0,0,.47-.27h0A4.55,4.55,0,0,0,568.11,164Z"/><path class="cls-5" d="M513.78,198.49,566.23,168a2.2,2.2,0,0,0,.47-.27h0a4.55,4.55,0,0,0,1.41-3.74,11.84,11.84,0,0,0-1.3-5.16L507,193.39Z"/><path class="cls-3" d="M510.43,198.35l-44.59-25.74c-2.68-1.55-4.85-5.7-4.85-9.26h0c0-3.57,2.17-5.21,4.85-3.67l44.59,25.75c2.68,1.54,4.84,5.69,4.84,9.26h0C515.27,198.25,513.11,199.89,510.43,198.35Z"/><path class="cls-6" d="M503.75,189.67l-5.36-3.1a2.31,2.31,0,0,1-1-1.84h0c0-.71.44-1,1-.73l5.36,3.09a2.34,2.34,0,0,1,1,1.85h0C504.72,189.65,504.28,190,503.75,189.67Z"/><polygon class="cls-2" points="463.5 99.01 472.66 104.22 482.01 98.73 481.98 96.34 481.9 96.39 481.89 96.22 486.05 96.19 486.03 93.85 490.1 93.82 490.08 91.47 494.15 91.44 494.13 89.09 498.21 89.06 498.18 86.71 502.54 86.68 503.9 85.89 505.39 79.72 505.37 77.33 504.64 79.62 498.05 78.74 463.5 99.01"/><polygon class="cls-1" points="472.63 101.83 481.98 96.34 481.87 93.84 486.03 93.81 485.92 91.46 490.08 91.43 489.97 89.08 494.13 89.05 494.03 86.7 498.18 86.68 498.08 84.33 502.52 84.3 503.87 83.5 505.37 77.34 498.02 76.36 463.47 96.63 472.63 101.83"/><path class="cls-2" d="M478.86,98.18a12.81,12.81,0,0,0-4.25-3.66,22,22,0,0,0-4.39-1.86l-6.75,4,9.16,5.2Z"/><polygon class="cls-3" points="505.12 78.37 505.37 77.34 504.13 77.17 474.94 94.3 476.48 95.17 505.12 78.37"/><polygon class="cls-7" points="441.35 106.54 441.25 103.15 442.34 105.44 441.35 106.54"/><path class="cls-2" d="M447,114.17c7.48,4.25,19.57,4.17,27-.19,3.73-2.18,5.57-5,5.54-7.86h0l-.1-3.6-.61.68a11.77,11.77,0,0,0-4.94-4.82c-7.48-4.25-19.57-4.16-27,.19S439.51,109.92,447,114.17Zm10.81-6.35c1.95,1.11,2,2.93,0,4.06a7.74,7.74,0,0,1-7,.05c-1.95-1.11-2-2.92,0-4.06A7.81,7.81,0,0,1,457.81,107.82Z"/><path class="cls-8" d="M446.9,110.78c7.48,4.25,19.57,4.17,27-.19s7.38-11.33-.11-15.59-19.57-4.16-27,.19S439.41,106.53,446.9,110.78Zm10.81-6.35c2,1.11,2,2.93,0,4.06a7.74,7.74,0,0,1-7,.05c-1.95-1.11-2-2.92,0-4.06A7.81,7.81,0,0,1,457.71,104.43Z"/><path class="cls-3" d="M455.57,112.64a7.69,7.69,0,0,1-4.76-.71c-1.4-.79-1.79-2-1.2-3l-3.39-2.69-3.52-4c-2.73,4-1.3,8.69,4.3,11.87a23.58,23.58,0,0,0,8.37,2.66Z"/><path class="cls-1" d="M446.9,110.78a23,23,0,0,0,5.63,2.21,30.9,30.9,0,0,0,4.47.77c6,.58,12.31-.48,16.89-3.17,7.43-4.36,7.38-11.33-.11-15.59s-19.57-4.16-27,.19S439.41,106.53,446.9,110.78Zm10.81-6.35c2,1.11,2,2.93,0,4.06a7.74,7.74,0,0,1-7,.05c-1.95-1.11-2-2.92,0-4.06A7.81,7.81,0,0,1,457.71,104.43Z"/><path class="cls-2" d="M443.36,103.06c.36-2.18,2-4.3,4.84-6,6.61-3.88,17.36-4,24-.17,3.31,1.88,5,4.36,5,6.85.47-2.83-1.17-5.75-4.94-7.89-6.66-3.78-17.41-3.7-24,.17C445,98,443.32,100.53,443.36,103.06Z"/><path class="cls-2" d="M438.86,133.91a7.46,7.46,0,0,1-3.75-1c-2.68-1.52-4.17-4.58-4.2-8.61C430.86,117,436,108,442.32,104.24c3.48-2,6.87-2.33,9.55-.81a7.56,7.56,0,0,1,2.78,2.78,11.53,11.53,0,0,1,1.42,5.84c.05,7.35-5.07,16.37-11.41,20.09A11.65,11.65,0,0,1,438.86,133.91Zm9.26-28.74a9,9,0,0,0-4.43,1.39c-5.61,3.29-10.13,11.25-10.08,17.75,0,3,1,5.26,2.83,6.28s4.24.75,6.85-.78c5.61-3.29,10.13-11.25,10.08-17.74a9,9,0,0,0-1.05-4.49h0a4.88,4.88,0,0,0-1.78-1.8A4.81,4.81,0,0,0,448.12,105.17Z"/><path class="cls-1" d="M451.64,111.14l5.33,1.31.77-4a7.74,7.74,0,0,1-7,.05Z"/><path class="cls-1" d="M446.9,110.78a23,23,0,0,0,5.63,2.21,30.9,30.9,0,0,0,4.47.77c6,.58,12.31-.48,16.89-3.17l-21.7-.49Z"/><path class="cls-2" d="M454.91,113.52a32,32,0,0,1-4.71-1.22v3.33a26.42,26.42,0,0,0,4.66,1.2C459.83,117.48,454.91,113.52,454.91,113.52Z"/><path class="cls-3" d="M451.45,112.71a23,23,0,0,1-3.07-1.14c-2.9-1.36.77,3.68.77,3.68s1,.39,2.3.79Z"/><polygon class="cls-3" points="505.9 171.21 496.4 177.33 491.78 176.58 503.07 171.12 505.9 171.21"/><path class="cls-5" d="M494.42,202.12s-2.74-1.38-4.42.68-4.08,6.9-4.15,10.18,2.59,3.05,4.18,2.27,6.21-7.49,6.49-8.8a4.61,4.61,0,0,0-.77-3.45C495.3,202.65,494.42,202.12,494.42,202.12Z"/><path class="cls-3" d="M495,201.46l.13,2.84a1.61,1.61,0,0,1-.8,1.47,3.16,3.16,0,0,1-2.11.33c-2.06-.33-2.24-.92-2.39-3.75S495,201.46,495,201.46Z"/><path class="cls-5" d="M484.41,196.67s-2.74-1.37-4.42.68-4.08,6.9-4.15,10.18,2.59,3.05,4.17,2.28,6.22-7.5,6.5-8.81a4.56,4.56,0,0,0-.78-3.45C485.29,197.2,484.41,196.67,484.41,196.67Z"/><path class="cls-3" d="M485,196l.13,2.83a1.6,1.6,0,0,1-.8,1.47,3.16,3.16,0,0,1-2.11.33c-2.06-.33-2.25-.92-2.39-3.75S485,196,485,196Z"/><path class="cls-1" d="M509.41,144c-.81-13.17-14.27,1.94-14.27,1.94l-9.21,9-8.29,9.11a8.17,8.17,0,0,0-2.06,6.56l3.36,25.54a2.5,2.5,0,0,0,2.51,2.19,10.43,10.43,0,0,0,1.25-.11,3.12,3.12,0,0,0,2.77-3.31l-.61-23.89,17.41-10.5S510.22,157.16,509.41,144Z"/><path class="cls-3" d="M491.51,166.53l-2.48-.91c-.06,0-4.21,4-4.17,5.43l1.86.59,4.68-4.54Z"/><path class="cls-3" d="M505.9,171.2s10.35-5.9,11.58-8.38c.49-1,1.24-2-1.78-3.45l-13.8,9.84.6,3.38Z"/><path class="cls-1" d="M519.42,149.08c-.86-13.17-14.27,1.93-14.27,1.93l-9.2,9-8.3,9.11a8.19,8.19,0,0,0-2.06,6.57L489,201.26a2.5,2.5,0,0,0,2.52,2.18,8.58,8.58,0,0,0,1.24-.11,3.12,3.12,0,0,0,2.77-3.31l-.61-23.89,17.41-10.5S520.21,161.11,519.42,149.08Z"/><path class="cls-3" d="M511.46,106.73c10.2,4.23,10,10.26,10,10.26s-2,22.11-1.32,36.87c.28,6.17-32.79,6.64-27.86-9.82,5.82-19.42,3.64-35.13,6.36-37.5S508.82,105.64,511.46,106.73Z"/><path class="cls-9" d="M514.74,112.08c-.53,2.07-3.25,3.16-6.06,2.44s-4.66-3-4.13-5.07,3.25-3.16,6.06-2.43S515.27,110,514.74,112.08Z"/><path class="cls-6" d="M510.4,115.23a7.38,7.38,0,0,1-1.84-.24A6.88,6.88,0,0,1,505,112.8a3.9,3.9,0,0,1-.9-3.47c.6-2.33,3.58-3.58,6.65-2.79a6.88,6.88,0,0,1,3.58,2.19,3.9,3.9,0,0,1,.9,3.47C514.74,114.05,512.74,115.23,510.4,115.23Zm-1.53-8c-1.9,0-3.48.88-3.85,2.3a3,3,0,0,0,.72,2.6A5.73,5.73,0,0,0,508.8,114c2.55.66,5-.28,5.47-2.08a3,3,0,0,0-.72-2.61,5.73,5.73,0,0,0-3.06-1.86A6.61,6.61,0,0,0,508.87,107.28Z"/><path class="cls-9" d="M507.37,106.27a24.61,24.61,0,0,1-.09,3.64c0,1,3.5,2,4.42,1s.56-1.88.78-5.34S507.37,106.27,507.37,106.27Z"/><path class="cls-10" d="M512.48,105.62s-.88,3.21-5.2,4.44l.07-2.91Z"/><path class="cls-9" d="M515.21,97.48a7.85,7.85,0,1,1-9.57-5.64A7.84,7.84,0,0,1,515.21,97.48Z"/><path class="cls-10" d="M509.41,99.73s-4.32,1.85-7.31,1.87-2.34-2.48-2.34-2.48l8.89-1.29Z"/><path class="cls-11" d="M501.2,100.22s3.77-1.6,7.07-.93a3.44,3.44,0,0,1,2,1.18,1.15,1.15,0,0,0,.61.44c.58.13,1.54-2.3,2.68-2.35s1.9.75,1,2.24-.61,3.17-.19,3.41,5-3.25,1-11.21-14.23-3.68-15.81-2.06c0,0-1.68,1.46-3,.16C496.45,91.1,494.93,102.52,501.2,100.22Z"/><path class="cls-9" d="M515.73,133.14v6a2.44,2.44,0,0,1-.79,1.8L502.67,152.1l1.39,2.13,16.21-11.75a3.32,3.32,0,0,0,1.34-2.32l1.09-10.42Z"/><path class="cls-3" d="M520.59,114s3.72,5.6,5.11,20.34c0,0-6.36,2-10,.89S520.59,114,520.59,114Z"/><path class="cls-2" d="M515.05,121.08a105.67,105.67,0,0,0-1.54,11.47,2.36,2.36,0,0,0,1.54,2.26h0Z"/><path class="cls-5" d="M511.87,159.87l-2.71-.36L491.65,149.4a2.46,2.46,0,0,0-2.19.09l-12.4,7.16-1.64-.22v1.64h0a.64.64,0,0,0,.37.57l19.84,11.46a2.46,2.46,0,0,0,2.19-.09l13.51-7.8a.88.88,0,0,0,.54-.74h0Z"/><path class="cls-2" d="M498.72,153.48l-1.25-.72H483.8l-6.74,3.89-1.64-.22v1.64h0a.64.64,0,0,0,.37.57l19.84,11.46a2.05,2.05,0,0,0,1.13.21Z"/><path class="cls-3" d="M476.14,156.53l-.72-.1v1.64h0a.64.64,0,0,0,.37.57l.35.2Z"/><path class="cls-12" d="M495.83,170.19a2.51,2.51,0,0,0,1.86-.12V167.3h-1.86Z"/><path class="cls-6" d="M495.63,168.46,475.79,157c-.56-.32-.49-.89.16-1.26l13.51-7.8a2.4,2.4,0,0,1,2.19-.09l19.84,11.45c.56.33.49.89-.16,1.27l-13.51,7.79A2.4,2.4,0,0,1,495.63,168.46Z"/><path class="cls-1" d="M495.3,166.73l-16.5-9.53c-.47-.27-.41-.74.13-1l7.24-4.07A2,2,0,0,1,488,152l16.5,9.52c.47.27.41.74-.13,1.05l-7.24,4.07A2,2,0,0,1,495.3,166.73Z"/><path class="cls-9" d="M490.23,147.57l-.21,1.37a10.34,10.34,0,0,0,.09,3.51l.25,1.21a1.67,1.67,0,0,0,1.36,1.33h0a.93.93,0,0,0,1.09-.82l.33-2.92s.75,1,1.11,1-.4-2.93-1.22-4.59S490.23,147.57,490.23,147.57Z"/><path class="cls-9" d="M497,125.82,494.82,130a8.29,8.29,0,0,0-.87,3.2L493,147.64l-2.8-.07L489,131.39a5.81,5.81,0,0,1,.07-1.5l1.45-8.21Z"/><path class="cls-5" d="M495,169.57l-1.66-2.18-17.5-10.13a2.42,2.42,0,0,1-1-1.94l0-14.32-1-1.31.94-.55h0a.63.63,0,0,1,.68,0l19.83,11.48a2.42,2.42,0,0,1,1,1.94v15.6a.9.9,0,0,1-.38.83h0Z"/><path class="cls-2" d="M482.86,161.35l-1.24-.72-6.82-11.85V141l-1-1.31.94-.55h0a.63.63,0,0,1,.68,0l19.83,11.48a2.1,2.1,0,0,1,.75.87Z"/><path class="cls-3" d="M474.25,140.27l-.45-.58.94-.55h0a.63.63,0,0,1,.68,0l.35.2Z"/><path class="cls-12" d="M495.44,150.78a2.6,2.6,0,0,1,.83,1.67l-1.94,1.12L493.4,152Z"/><path class="cls-3" d="M494.31,151.2l-19.82-11.47c-.56-.33-1,0-1,.76l0,15.6a2.43,2.43,0,0,0,1,1.94l19.82,11.48c.56.33,1,0,1-.76l0-15.6A2.46,2.46,0,0,0,494.31,151.2Z"/><path class="cls-9" d="M504.06,154.23l-.32.66a4.44,4.44,0,0,1-1.65,1.84l-2,1.21a2,2,0,0,1-2,.05l-.07,0a1.19,1.19,0,0,1-.17-1.82l2.06-2.12s-1.15.89-1.48.53,1.12-1.54,2.17-1.58a4.11,4.11,0,0,0,2.05-.86Z"/><path class="cls-3" d="M498.84,106.51s-7.54,8.2-10.58,15.73a15.42,15.42,0,0,0,8.89,6.48C503.47,130.54,498.84,106.51,498.84,106.51Z"/><path class="cls-2" d="M495.73,128.23,497,116.42l-2.88,11.06A17,17,0,0,0,495.73,128.23Z"/><path class="cls-6" d="M504.49,104.85l-2-.56a4.92,4.92,0,0,0,2.38,1.91c1.41.39,1.63-.81,1.63-.81Z"/><path class="cls-1" d="M466,86.7A5.68,5.68,0,1,1,471.7,81,5.69,5.69,0,0,1,466,86.7Zm0-10.12A4.44,4.44,0,1,0,470.46,81,4.45,4.45,0,0,0,466,76.58Z"/><path class="cls-3" d="M580.82,127.62a4,4,0,1,1,4-4A4,4,0,0,1,580.82,127.62Zm0-6.81a2.79,2.79,0,1,0,2.78,2.78A2.79,2.79,0,0,0,580.82,120.81Z"/><path class="cls-3" d="M448.79,200.37l-2.73-5.56,5.55-2.73,2.74,5.55Zm-1.08-5,1.64,3.34,3.34-1.64-1.64-3.34Z"/><path class="cls-3" d="M529.47,114.21l-2.73-5.56,5.55-2.74,2.74,5.56Zm-1.08-5,1.64,3.34,3.34-1.64-1.64-3.34Z"/><rect class="cls-3" x="439.25" y="166.95" width="2.85" height="2.85" transform="translate(-29.08 211.7) rotate(-26.18)"/><path class="cls-3" d="M436.48,180.13l-14.9-8.6a.75.75,0,0,0-.77-.06h0l-1.44.83,1,.38v10.85a2.89,2.89,0,0,0,1.2,2.29L435.82,194v1.27l1.46-.84h0a1.08,1.08,0,0,0,.4-1V182.42A2.89,2.89,0,0,0,436.48,180.13Z"/><path class="cls-1" d="M435,195.26l-14.9-8.6a2.9,2.9,0,0,1-1.2-2.3V173.28c0-.88.54-1.28,1.2-.9L435,181a2.88,2.88,0,0,1,1.2,2.29v11.08C436.21,195.24,435.67,195.64,435,195.26Z"/><path class="cls-6" d="M425.12,182.84c0,.64-.45.9-1,.58a2.23,2.23,0,0,1-1-1.74c0-.64.45-.9,1-.58A2.21,2.21,0,0,1,425.12,182.84Z"/><path class="cls-6" d="M428.17,184.6c0,.64-.45.9-1,.58a2.24,2.24,0,0,1-1-1.74c0-.65.46-.91,1-.59A2.23,2.23,0,0,1,428.17,184.6Z"/><path class="cls-6" d="M431.21,186.35c0,.65-.45.91-1,.58a2.21,2.21,0,0,1-1-1.74c0-.64.45-.9,1-.58A2.23,2.23,0,0,1,431.21,186.35Z"/></svg>